<svg width="13" height="18" viewBox="0 0 13 18" fill="none" xmlns="http://www.w3.org/2000/svg">
<path d="M12.8438 15.3633V18H1.17188V15.75L6.69141 9.83203C7.24609 9.21484 7.68359 8.67188 8.00391 8.20312C8.32422 7.72656 8.55469 7.30078 8.69531 6.92578C8.84375 6.54297 8.91797 6.17969 8.91797 5.83594C8.91797 5.32031 8.83203 4.87891 8.66016 4.51172C8.48828 4.13672 8.23438 3.84766 7.89844 3.64453C7.57031 3.44141 7.16406 3.33984 6.67969 3.33984C6.16406 3.33984 5.71875 3.46484 5.34375 3.71484C4.97656 3.96484 4.69531 4.3125 4.5 4.75781C4.3125 5.20312 4.21875 5.70703 4.21875 6.26953H0.832031C0.832031 5.25391 1.07422 4.32422 1.55859 3.48047C2.04297 2.62891 2.72656 1.95313 3.60938 1.45312C4.49219 0.945313 5.53906 0.691406 6.75 0.691406C7.94531 0.691406 8.95312 0.886719 9.77344 1.27734C10.6016 1.66016 11.2266 2.21484 11.6484 2.94141C12.0781 3.66016 12.293 4.51953 12.293 5.51953C12.293 6.08203 12.2031 6.63281 12.0234 7.17188C11.8438 7.70312 11.5859 8.23438 11.25 8.76562C10.9219 9.28906 10.5234 9.82031 10.0547 10.3594C9.58594 10.8984 9.06641 11.457 8.49609 12.0352L5.53125 15.3633H12.8438Z" fill="black"/>
</svg>
