<svg width="13" height="19" viewBox="0 0 13 19" fill="none" xmlns="http://www.w3.org/2000/svg">
<path d="M4.62891 8.00391H6.43359C7.01172 8.00391 7.48828 7.90625 7.86328 7.71094C8.23828 7.50781 8.51562 7.22656 8.69531 6.86719C8.88281 6.5 8.97656 6.07422 8.97656 5.58984C8.97656 5.15234 8.89062 4.76562 8.71875 4.42969C8.55469 4.08594 8.30078 3.82031 7.95703 3.63281C7.61328 3.4375 7.17969 3.33984 6.65625 3.33984C6.24219 3.33984 5.85938 3.42188 5.50781 3.58594C5.15625 3.75 4.875 3.98047 4.66406 4.27734C4.45312 4.57422 4.34766 4.93359 4.34766 5.35547H0.960938C0.960938 4.41797 1.21094 3.60156 1.71094 2.90625C2.21875 2.21094 2.89844 1.66797 3.75 1.27734C4.60156 0.886719 5.53906 0.691406 6.5625 0.691406C7.71875 0.691406 8.73047 0.878906 9.59766 1.25391C10.4648 1.62109 11.1406 2.16406 11.625 2.88281C12.1094 3.60156 12.3516 4.49219 12.3516 5.55469C12.3516 6.09375 12.2266 6.61719 11.9766 7.125C11.7266 7.625 11.3672 8.07812 10.8984 8.48438C10.4375 8.88281 9.875 9.20312 9.21094 9.44531C8.54688 9.67969 7.80078 9.79688 6.97266 9.79688H4.62891V8.00391ZM4.62891 10.5703V8.82422H6.97266C7.90234 8.82422 8.71875 8.92969 9.42188 9.14062C10.125 9.35156 10.7148 9.65625 11.1914 10.0547C11.668 10.4453 12.0273 10.9102 12.2695 11.4492C12.5117 11.9805 12.6328 12.5703 12.6328 13.2188C12.6328 14.0156 12.4805 14.7266 12.1758 15.3516C11.8711 15.9688 11.4414 16.4922 10.8867 16.9219C10.3398 17.3516 9.69922 17.6797 8.96484 17.9062C8.23047 18.125 7.42969 18.2344 6.5625 18.2344C5.84375 18.2344 5.13672 18.1367 4.44141 17.9414C3.75391 17.7383 3.12891 17.4375 2.56641 17.0391C2.01172 16.6328 1.56641 16.125 1.23047 15.5156C0.902344 14.8984 0.738281 14.168 0.738281 13.3242H4.125C4.125 13.7617 4.23438 14.1523 4.45312 14.4961C4.67188 14.8398 4.97266 15.1094 5.35547 15.3047C5.74609 15.5 6.17969 15.5977 6.65625 15.5977C7.19531 15.5977 7.65625 15.5 8.03906 15.3047C8.42969 15.1016 8.72656 14.8203 8.92969 14.4609C9.14062 14.0938 9.24609 13.668 9.24609 13.1836C9.24609 12.5586 9.13281 12.0586 8.90625 11.6836C8.67969 11.3008 8.35547 11.0195 7.93359 10.8398C7.51172 10.6602 7.01172 10.5703 6.43359 10.5703H4.62891Z" fill="black"/>
</svg>
