<svg width="30" height="30" viewBox="0 0 30 30" fill="none" xmlns="http://www.w3.org/2000/svg">
<path d="M6.99996 28.3333H23.6666C25.5392 28.3333 26.4755 28.3333 27.1481 27.8839C27.4393 27.6894 27.6893 27.4394 27.8839 27.1482C28.3333 26.4756 28.3333 25.5393 28.3333 23.6667C28.3333 21.7941 28.3333 20.8578 27.8839 20.1852C27.6893 19.894 27.4393 19.644 27.1481 19.4494C26.4755 19 25.5392 19 23.6666 19H13.6666C12.4095 19 11.781 19 11.3905 18.6095C11 18.219 11 17.5904 11 16.3333L11 6.33334C11 4.46073 11 3.52442 10.5505 2.85182C10.356 2.56065 10.106 2.31065 9.81481 2.11609C9.14222 1.66668 8.20591 1.66668 6.33329 1.66668C4.46068 1.66668 3.52437 1.66668 2.85177 2.11609C2.5606 2.31065 2.3106 2.56065 2.11604 2.85182C1.66663 3.52442 1.66663 4.46073 1.66663 6.33334L1.66663 23C1.66663 25.5142 1.66663 26.7712 2.44767 27.5523C3.22872 28.3333 4.4858 28.3333 6.99996 28.3333Z" stroke="#999999" stroke-width="2.5" stroke-linecap="round"/>
<path d="M1.66663 15L4.33329 15M1.66663 7L4.33329 7M1.66663 19L5.66663 19M1.66663 11L5.66663 11" stroke="#999999" stroke-width="2" stroke-linecap="round"/>
<path d="M15 28.3333V25.6667M23 28.3333V25.6667M19 28.3333L19 24.3333M11 28.3333L11 24.3333" stroke="#999999" stroke-width="2" stroke-linecap="round"/>
</svg>
