<svg width="40" height="40" viewBox="0 0 40 40" fill="none" xmlns="http://www.w3.org/2000/svg">
<path d="M19.9997 25.3333V33.3333M19.9997 25.3333L22.6663 27.9999M19.9997 25.3333L17.333 27.9999" stroke="#00D39C" stroke-width="2.5" stroke-linecap="round" stroke-linejoin="round"/>
<path d="M33.3337 21.8039C33.3337 24.9278 31.4087 27.6073 28.667 28.7472M23.1749 14.7029C23.9693 14.4255 24.8241 14.2745 25.7146 14.2745C26.5875 14.2745 27.4261 14.4196 28.2071 14.6866M13.4885 18.1452C13.1303 18.0756 12.7601 18.0392 12.3813 18.0392C9.22536 18.0392 6.66699 20.5675 6.66699 23.6863C6.66699 26.2148 8.34865 28.3552 10.667 29.0748M13.4885 18.1452C13.1831 17.3304 13.0162 16.4492 13.0162 15.5294C13.0162 11.371 16.4274 8 20.6352 8C24.5548 8 27.7831 10.9249 28.2071 14.6866M13.4885 18.1452C14.2411 18.2912 14.9407 18.5832 15.5559 18.9901M28.2071 14.6866C29.3931 15.0922 30.4463 15.7791 31.2848 16.6667" stroke="#00D39C" stroke-width="2.5" stroke-linecap="round"/>
</svg>
