<svg width="30" height="30" viewBox="0 0 30 30" fill="none" xmlns="http://www.w3.org/2000/svg">
<rect width="30" height="30" rx="5" fill="#02C894"/>
<path d="M6.16699 15.5001C6.16699 11.5717 6.16699 9.60752 7.38738 8.38714C8.60777 7.16675 10.572 7.16675 14.5003 7.16675C18.4287 7.16675 20.3929 7.16675 21.6133 8.38714C22.8337 9.60752 22.8337 11.5717 22.8337 15.5001C22.8337 19.4285 22.8337 21.3926 21.6133 22.613C20.3929 23.8334 18.4287 23.8334 14.5003 23.8334C10.572 23.8334 8.60777 23.8334 7.38738 22.613C6.16699 21.3926 6.16699 19.4285 6.16699 15.5001Z" stroke="white" stroke-width="2.5"/>
<path d="M17 15.5L14.5 15.5M14.5 15.5L12 15.5M14.5 15.5L14.5 13M14.5 15.5L14.5 18" stroke="white" stroke-width="2.5" stroke-linecap="round"/>
</svg>
