<svg width="19" height="17" viewBox="0 0 19 17" fill="none" xmlns="http://www.w3.org/2000/svg">
<path d="M15.3334 1H3.66675C2.48824 1 1.89898 1 1.53286 1.3435C1.16675 1.687 1.16675 2.23985 1.16675 3.34555V3.9204C1.16675 4.78527 1.16675 5.2177 1.38308 5.57618C1.59942 5.93466 1.99464 6.15715 2.7851 6.60212L5.21262 7.96865C5.74297 8.2672 6.00814 8.41648 6.19801 8.58131C6.5934 8.92458 6.83681 9.32793 6.94711 9.82264C7.00008 10.0602 7.00008 10.3382 7.00008 10.8941L7.00008 13.1187C7.00008 13.8766 7.00008 14.2556 7.21002 14.5511C7.41996 14.8465 7.79282 14.9923 8.53854 15.2838C10.1041 15.8958 10.8868 16.2018 11.4435 15.8537C12.0001 15.5055 12.0001 14.7099 12.0001 13.1187V10.8941C12.0001 10.3382 12.0001 10.0602 12.053 9.82264C12.1633 9.32793 12.4068 8.92458 12.8022 8.58131C12.992 8.41648 13.2572 8.2672 13.7875 7.96865L16.2151 6.60212C17.0055 6.15715 17.4007 5.93466 17.6171 5.57618C17.8334 5.2177 17.8334 4.78527 17.8334 3.9204V3.34555C17.8334 2.23985 17.8334 1.687 17.4673 1.3435C17.1012 1 16.5119 1 15.3334 1Z" stroke="#1C274C" stroke-width="2"/>
</svg>
