<svg width="41" height="49" viewBox="0 0 41 49" fill="none" xmlns="http://www.w3.org/2000/svg">
<path d="M15.9382 2C15.9382 2 17 1 18.092 1C18.752 1 19.9326 1.67198 19.9326 1.67198C19.9326 1.67198 39.4387 14.5 39.9387 16C40.4387 17 40.4387 18 40.4387 18C40.4387 18 40.4502 36.0872 40.4387 36.5C40.4223 37.0918 39.9387 38.5 38.9387 38.5C37.9387 38.5 36.4387 37.5 36.4387 37.5C36.4387 37.5 22.5206 27.7213 21.4387 27C20.7938 26.57 20 25.5 18.6178 26.5C18.0295 26.9257 17.9387 28.5 17.9387 28.5C17.9387 29.2746 17.956 45.992 17.9387 46.7532C17.9267 47.2798 17.9007 47.6467 17.4387 48C16.8164 48.4759 16.1049 48.2398 15.4387 48C14.5002 47.6621 14.0002 47 13.4387 46.5C13.1738 46.1331 1 33.5 1 31C1.00089 27.7198 1 27.9918 1 27.5C1 25.7178 1.09884 22.7992 1.09884 21.017C2 17 13 5 15.9382 2Z" fill="#00D39C" stroke="#00D39C" stroke-linecap="round"/>
</svg>
