<svg width="24" height="30" viewBox="0 0 24 30" fill="none" xmlns="http://www.w3.org/2000/svg">
<path fill-rule="evenodd" clip-rule="evenodd" d="M12.5 6.25C12.5 8.32107 10.8211 10 8.75 10C6.67893 10 5 8.32107 5 6.25C5 4.17893 6.67893 2.5 8.75 2.5C10.8211 2.5 12.5 4.17893 12.5 6.25ZM15 6.25C15 9.70178 12.2018 12.5 8.75 12.5C5.29822 12.5 2.5 9.70178 2.5 6.25C2.5 2.79822 5.29822 0 8.75 0C12.2018 0 15 2.79822 15 6.25ZM12.7902 17.7313L14.787 16.1662C13.2168 14.6691 11.0907 13.75 8.75 13.75C3.91751 13.75 0 17.6675 0 22.5H2.5C2.5 19.0482 5.29822 16.25 8.75 16.25C10.2904 16.25 11.7007 16.8073 12.7902 17.7313Z" fill="#262626"/>
<path fill-rule="evenodd" clip-rule="evenodd" d="M11.25 22.5L23.75 22.5L23.75 25L11.25 25L11.25 22.5Z" fill="#262626"/>
<path fill-rule="evenodd" clip-rule="evenodd" d="M16.25 30V17.5H18.75V30H16.25Z" fill="#262626"/>
</svg>
