<svg width="30" height="30" viewBox="0 0 30 30" fill="none" xmlns="http://www.w3.org/2000/svg">
<path d="M3 28.3333V15C3 12.4858 3 11.2288 3.78105 10.4477C4.5621 9.66666 5.81918 9.66666 8.33333 9.66666C10.8475 9.66666 12.1046 9.66666 12.8856 10.4477C13.6667 11.2288 13.6667 12.4858 13.6667 15" stroke="#999999" stroke-width="2.5"/>
<path d="M21.6666 28.3333V20.3333C21.6666 17.8192 21.6666 16.5621 20.8855 15.781C20.1045 15 18.8474 15 16.3333 15H13.6666C11.1524 15 9.89535 15 9.1143 15.781C8.33325 16.5621 8.33325 17.8192 8.33325 20.3333V28.3333" stroke="#999999" stroke-width="2.5"/>
<path d="M26.9999 28.3333V9.36267C26.9999 7.57488 26.9999 6.68098 26.5251 5.99575C26.0502 5.31052 25.2132 4.99665 23.5392 4.36891C20.2656 3.14129 18.6287 2.52748 17.481 3.32287C16.3333 4.11826 16.3333 5.86639 16.3333 9.36267V15" stroke="#999999" stroke-width="2.5"/>
<path d="M4.33325 9.66667V7.66667C4.33325 6.40959 4.33325 5.78105 4.72378 5.39052C5.1143 5 5.74284 5 6.99992 5H9.66659C10.9237 5 11.5522 5 11.9427 5.39052C12.3333 5.78105 12.3333 6.40959 12.3333 7.66667V9.66667" stroke="#999999" stroke-width="2.5" stroke-linecap="round"/>
<path d="M8.33325 4.33332V1.66666" stroke="#999999" stroke-width="2.5" stroke-linecap="round"/>
<path d="M28.3334 28.3333L1.66675 28.3333" stroke="#999999" stroke-width="1.5" stroke-linecap="round"/>
<path d="M12.3333 19H17.6666" stroke="#999999" stroke-width="1.5" stroke-linecap="round"/>
<path d="M12.3333 23H17.6666" stroke="#999999" stroke-width="1.5" stroke-linecap="round"/>
</svg>
